<svg xmlns="http://www.w3.org/2000/svg" viewBox="0 0 184.32 166.3"><defs><style>.cls-1{fill:#fcfcfc;}.cls-2{fill:#f7f7f7;}.cls-3{fill:none;}</style></defs><g id="Layer_2" data-name="Layer 2"><g id="Layer_1-2" data-name="Layer 1"><path class="cls-1" d="M144.7,142.76c-9.28-.55-19.73-1.67-30.17-1.67-12.87,0-25,4.2-37.19,7.94-9.34,2.86-18.79,5.85-28.41,7.25-13.92,2-26.47-3-38-10.59A102.3,102.3,0,0,1,0,137.3c5.6,2.21,11.09,4.77,16.82,6.57,14.93,4.7,30,3.45,45.08.49,13.51-2.66,27-5.74,40.6-7.61A76.85,76.85,0,0,1,144.7,142.76Z"/><path class="cls-2" d="M97.51,68c6.67-8.93,6.71-11.84-.2-20.68,1.87.75,2.94,1.15,4,1.6,5.49,2.29,10.81,5.16,16.5,6.77,7.07,2,10.66,15.1,4.75,20.73C115.73,69.34,106.77,68.35,97.51,68Z"/><path class="cls-1" d="M140.23,147c-6.53,0-13.09-.4-19.59.08-12.43.91-23.82,5.46-34.93,10.84-7.06,3.41-14.21,6.91-22.35,6.25-4-.32-7.93-1.46-11.72-2.19,15.61-5,31-10.09,46.51-14.8,13.48-4.11,27.18-4.11,40.92-1.16.41.09.81.24,1.21.37Z"/><path class="cls-2" d="M64.15,7.73c6.92,3.5,14.35,6.87,21.39,10.93,5.81,3.35,6.88,13.52,3,18.42-4.17-2-8-4.42-12.23-5.78s-8.61-1.66-13.1-2.45c2.69-2.75,5.48-5.94,4.69-10.13C67.2,15,65.45,11.39,64.15,7.73Z"/><path class="cls-2" d="M118.1,53.52c-4.92-5.06-11.44-5.79-18.59-6.54,5.35-5.37,4.37-10.58.45-16.06,5.56,2.79,11.28,5.32,16.63,8.46C120.81,41.85,121.4,49.34,118.1,53.52Z"/><path class="cls-2" d="M75.3,6.53a5.65,5.65,0,0,1,0-1.73c.44-1.59.73-4.27,1.61-4.5C79.66-.4,83,0,84.08,3c1.25,3.39,3.28,4.85,7,4.63-4.33,2.79-6.44,2.46-10.06-.23C79.78,6.5,77.6,6.84,75.3,6.53Z"/><path class="cls-3" d="M62.64,127.53A2.33,2.33,0,1,0,65,129.86,2.33,2.33,0,0,0,62.64,127.53Z"/><circle class="cls-3" cx="91.27" cy="125.87" r="2.33"/><path class="cls-3" d="M49.52,128.75a2.33,2.33,0,1,0,2.32,2.32A2.32,2.32,0,0,0,49.52,128.75Z"/><path class="cls-3" d="M76.83,125.87a2.33,2.33,0,1,0,2.32,2.32A2.32,2.32,0,0,0,76.83,125.87Z"/><circle class="cls-3" cx="104.79" cy="123.54" r="2.33"/><path class="cls-2" d="M65.35,113.05a15.71,15.71,0,0,0,2-3.46c1-3.37,3.19-4.1,6.37-3.87,9.9.71,19.85,1.07,28.6,6.93.69-1.05,1.26-2.13,1.79-2.81,3.58-4.52,4.93-4.8,9.21-5.64,3.63-.72,5-.75,7.32-1.19,3.65-.7,7.1-.72,10.63-1.93,1.88-.64,2.45-1.73,2.5-3.62a27,27,0,0,0-4.89-15.82A4.06,4.06,0,0,0,127.15,80c-11.71-4.25-23.44-8.42-35.64-12.78C102.77,80.43,105.19,91.63,99,99.29c.32-3.28,1.25-6.9.91-10.4-.91-9.32-4.31-17.07-14.2-20.47-7.39-2.54-14.6-5.62-21.86-8.54l-15.08-5.6A43,43,0,0,1,65.45,76c3.16,8.92.09,20.61-5.73,26.9,3.4-6.81,5-13.28,4.5-20.23-.18-2.64-1-4.13-3.71-5.11C48.9,73.3,37.37,68.77,25.8,64.35c-1.93-.74-3.9-1.4-6.52-2.33C30.66,74.75,33,93.39,25.64,105.55A5.09,5.09,0,0,0,26.69,112h0C39.54,109,52.38,107.7,65.35,113.05Z"/><path class="cls-2" d="M61.33,55.42l17.79,3.23c6,1.18,11.55,3.51,15.59,8.44C102,58.8,99,44.91,89.06,40.72Q78.74,36.34,68.4,32c-2.28-1-4.57-1.9-7.62-3.17C70.44,40.45,70.22,51.18,61.33,55.42Z"/><path class="cls-2" d="M4.86,102.34c2.53,5.8,4.94,10.73,6.83,15.85,1.65,4.45,4.46,7.3,9,8.47,6.36,1.65,11.25,5,13.35,11.54.68,2.13,2.23,2.83,4.36,2.57,10.77-1.3,21.64-2.09,32.3-4,18.9-3.36,37.68-7.43,56.28-3.28,3.4-4.81,6.47-8.9,9.28-13.16,2.61-4,4.89-8.16,7.44-12.18a12.61,12.61,0,0,1,3.39-4.06c11.56-7.31,23.23-14.45,34.84-21.68a17.18,17.18,0,0,0,2.4-2.13,4.45,4.45,0,0,0-3,.53c-23.24,12.12-47.08,22.84-72,31-17.48,5.7-35.28,10-53.7,11.34-4.7.34-8.12-1.15-12.21-4.39-4.65-3.68-12.35-4.26-17.5-4.34-2.31,0-4.71-.5-11.77-5.33M49.52,133.4a2.33,2.33,0,1,1,2.32-2.33A2.33,2.33,0,0,1,49.52,133.4Zm13.12-1.21A2.33,2.33,0,1,1,65,129.86,2.33,2.33,0,0,1,62.64,132.19Zm14.19-1.67a2.33,2.33,0,1,1,2.32-2.33A2.33,2.33,0,0,1,76.83,130.52Zm14.44-2.33a2.33,2.33,0,1,1,2.32-2.32A2.32,2.32,0,0,1,91.27,128.19Zm13.52-2.32a2.33,2.33,0,1,1,2.32-2.33A2.33,2.33,0,0,1,104.79,125.87Z"/><path class="cls-1" d="M139.08,151.87c-4.26,0-8.55-.32-12.79.07-8.12.76-15.57,4.57-22.83,9.06-4.62,2.86-9.29,5.78-14.6,5.23a57.13,57.13,0,0,1-7.67-1.83c10.21-4.17,20.26-8.43,30.4-12.38,8.8-3.43,17.76-3.43,26.74-1a7.68,7.68,0,0,1,.79.32Z"/></g></g></svg>